<svg width="99" height="38" xmlns="http://www.w3.org/2000/svg">

 <g>
  <title>Layer 1</title>
  <g stroke-width="0" filter="url(#_blur)">
   <g id="svg_1">
    <path stroke-dasharray="2,2" stroke="#000000" fill="#ffffff" d="m82.0688,7.58731l6.0587,0c4.5646,0.21509 9.8187,-3.4085 11.3293,-7.57812l-6.0587,0c-4.5645,-0.2151 -9.6217,3.37541 -11.3293,7.57812z" clip-rule="evenodd" fill-rule="evenodd" id="svg_4"/>
    <path stroke-dasharray="2,2" stroke="#000000" fill="#ffffff" d="m34.7759,18.9209l7.5036,0l0,15.3052c0,2.0682 -1.724,3.7725 -3.7272,3.7725l-3.7764,0l0,-19.0777zm56.9583,-7.5284l1.6747,0l0,22.7508c0,2.0683 -1.7076,3.8553 -3.7764,3.8553l-3.7271,0l0,-20.6992c0,-2.7466 2.6106,-5.9069 5.8288,-5.9069zm-28.044,18.9949l14.8429,0c-1.018,1.6711 -1.8061,3.0445 -2.9883,5.0631c-0.7881,1.3402 -2.9226,2.5481 -4.8601,2.5481l-6.9945,0c-7.832,0 -15.3356,-6.2379 -15.3356,-15.2059c0,-8.1407 6.5841,-15.20584 15.3356,-15.20584l6.4363,0c-2.6763,0.24819 -5.6975,1.50569 -8.4231,3.70634c-3.9242,3.1934 -6.1079,7.4457 -5.8616,10.8377c-0.4762,4.666 3.3987,8.2565 7.8484,8.2565zm-28.9143,-15.2059l3.76,0c2.0688,0 3.7436,-1.7042 3.7436,-3.8056l0,-3.80559l-3.76,0c-2.0688,0 -3.7436,1.70425 -3.7436,3.80559l0,3.8056zm-13.5623,22.8005l7.5036,0l0,-30.39514l-7.5036,0l0,11.36714l-13.71002,0l0,-11.36714l-7.50358,0l0,30.41174l7.50358,0l0,-11.4499l13.71002,0l0,11.4333z" clip-rule="evenodd" fill-rule="evenodd" id="svg_3"/>
    <path stroke-dasharray="2,2" stroke="#000000" fill="#ffffff" d="m70.14,7.58984c-2.6764,0.2482 -5.6975,1.5057 -8.4231,3.70636c-3.9242,3.1934 -6.108,7.4457 -5.8617,10.8377c0,0 0.7882,-6.9329 7.8484,-6.9329l8.653,0c3.7271,0 9.1126,-3.6732 9.7037,-7.59461c-3.9406,-0.01655 -7.9797,-0.01655 -11.9203,-0.01655z" clip-rule="evenodd" fill-rule="evenodd" id="svg_2"/>
   </g>
  </g>
 </g>
</svg>