<svg width="100" height="38" viewBox="0 0 100 38" fill="none" xmlns="http://www.w3.org/2000/svg">
<g id="Group">
<path id="Vector" fill-rule="evenodd" clip-rule="evenodd" d="M82.0688 7.58731H88.1275C92.6921 7.8024 97.9462 4.17881 99.4568 0.00919173H93.3981C88.8336 -0.205908 83.7764 3.3846 82.0688 7.58731Z" fill="#25A3D9"/>
<path id="Vector_2" fill-rule="evenodd" clip-rule="evenodd" d="M34.7759 18.9209H42.2795V34.2261C42.2795 36.2943 40.5555 37.9986 38.5523 37.9986H34.7759V18.9209ZM91.7342 11.3925H93.4089V34.1433C93.4089 36.2116 91.7013 37.9986 89.6325 37.9986H85.9054V17.2994C85.9054 14.5528 88.516 11.3925 91.7342 11.3925ZM63.6902 30.3874H78.5331C77.5151 32.0585 76.727 33.4319 75.5448 35.4505C74.7567 36.7907 72.6222 37.9986 70.6847 37.9986H63.6902C55.8582 37.9986 48.3546 31.7607 48.3546 22.7927C48.3546 14.652 54.9387 7.58686 63.6902 7.58686H70.1265C67.4502 7.83505 64.429 9.09255 61.7034 11.2932C57.7792 14.4866 55.5955 18.7389 55.8418 22.1309C55.3656 26.7969 59.2405 30.3874 63.6902 30.3874ZM34.7759 15.1815H38.5359C40.6047 15.1815 42.2795 13.4773 42.2795 11.3759V7.57031H38.5195C36.4507 7.57031 34.7759 9.27456 34.7759 11.3759V15.1815ZM21.2136 37.982H28.7172V7.58686H21.2136V18.954H7.50358V7.58686H0V37.9986H7.50358V26.5487H21.2136V37.982Z" fill="#003294"/>
<path id="Vector_3" fill-rule="evenodd" clip-rule="evenodd" d="M70.14 7.58984C67.4636 7.83804 64.4425 9.09554 61.7169 11.2962C57.7927 14.4896 55.6089 18.7419 55.8552 22.1339C55.8552 22.1339 56.6434 15.201 63.7036 15.201H72.3566C76.0837 15.201 81.4692 11.5278 82.0603 7.60639C78.1197 7.58984 74.0806 7.58984 70.14 7.58984Z" fill="#0A6FB4"/>
</g>
</svg>
